<?xml version="1.0" standalone="no"?>
<!DOCTYPE svg PUBLIC "-//W3C//DTD SVG 20010904//EN"
 "http://www.w3.org/TR/2001/REC-SVG-20010904/DTD/svg10.dtd">
<svg version="1.0" xmlns="http://www.w3.org/2000/svg"
 width="1250.000000pt" height="1024.000000pt" viewBox="0 0 1250.000000 1024.000000"
 preserveAspectRatio="xMidYMid meet">

<g transform="translate(0.000000,1024.000000) scale(0.100000,-0.100000)"
fill="#000000" stroke="none">
<path d="M10962 10004 c-109 -29 -216 -117 -264 -216 -14 -29 -121 -368 -237
-753 -117 -385 -217 -715 -222 -732 l-11 -33 -4123 0 c-4057 0 -4124 0 -4186
-19 -120 -38 -203 -113 -262 -239 -29 -61 -32 -76 -32 -162 l1 -95 592 -2068
c326 -1138 603 -2090 616 -2115 34 -66 95 -132 157 -169 114 -68 -117 -63
2956 -63 1531 0 2783 -3 2783 -7 0 -8 -281 -945 -285 -951 -1 -1 -42 4 -90 13
-171 30 -367 15 -539 -40 l-79 -25 -1615 0 -1615 0 -72 25 c-123 42 -243 58
-395 52 -200 -8 -346 -51 -523 -154 -117 -68 -293 -246 -364 -367 -109 -185
-155 -354 -155 -566 0 -212 46 -382 155 -565 61 -104 225 -278 322 -340 381
-248 849 -248 1219 -1 160 107 283 250 372 431 84 174 123 362 110 542 l-7 93
956 0 955 0 -6 -94 c-36 -511 314 -993 815 -1123 120 -31 310 -41 432 -23 340
49 642 263 807 570 83 153 123 320 124 505 0 145 -11 215 -58 362 l-36 111
425 1404 c233 772 736 2432 1118 3690 l692 2287 331 3 c322 3 332 4 389 27 81
34 178 125 216 204 79 161 53 344 -66 477 -53 59 -111 95 -194 121 -56 18 -98
19 -557 18 -398 0 -508 -3 -550 -15z m-992 -2586 c0 -2 -220 -727 -488 -1613
l-488 -1610 -2729 0 -2730 0 -457 1595 c-251 877 -457 1603 -457 1613 -1 16
180 17 3674 17 2021 0 3675 -1 3675 -2z"/>
</g>
</svg>
